# xmcd
#
# Track frame offsets: 
#        150
#        7255
#        24646
#        42090
#        62469
#        81127
#        99275
#        115640
#        135002
#        154869
#        175275
#        191607
#        206303
#        223691
#        230523
#
# Disc length: 3326 seconds
#
# Revision: 0
# Processed by: cddbd v1.5.2PL0 Copyright (c) Steve Scherf et al.
# Submitted via: ExactAudioCopyFreeDBPlugin 1.0
#
DISCID=b90cfc0f
DTITLE=Bobo - Les Rats Quittent Le Navire
DYEAR=2005
DGENRE=Hip-Hop
TTITLE0=L'empire Contre-attaque
TTITLE1=Chacun Son Paradis
TTITLE2=Pole Position
TTITLE3=M.I.C. feat. Le Spectre
TTITLE4=Donnes-moi Les Clefs feat. Joy
TTITLE5=Face Aux Vents
TTITLE6=Der Spanner feat. Supa Faya
TTITLE7=Sweet Time and Cam66
TTITLE8=C'est Quoi ? feat. Dilem
TTITLE9=La Police feat. Charly B, Franky P, Jidi and Dilem
TTITLE10=Kaleïdokids ft Bydame
TTITLE11=Tous Les Jours
TTITLE12=Dans Les Yeux
TTITLE13=Guitar Outro and Poeïra
TTITLE14=Soleil feat. Charly B, Shelly B and Bydame
EXTD=
EXTT0=
EXTT1=
EXTT2=
EXTT3=
EXTT4=
EXTT5=
EXTT6=
EXTT7=
EXTT8=
EXTT9=
EXTT10=
EXTT11=
EXTT12=
EXTT13=
EXTT14=
PLAYORDER=
